<?xml version="1.0" encoding="utf-8"?>
<!-- Generator: Adobe Illustrator 26.0.1, SVG Export Plug-In . SVG Version: 6.00 Build 0)  -->
<svg version="1.2" baseProfile="tiny" id="Layer_1" xmlns="http://www.w3.org/2000/svg" xmlns:xlink="http://www.w3.org/1999/xlink"
	 x="0px" y="0px" viewBox="0 0 24 24" overflow="visible" xml:space="preserve">
<g>
	<path d="M11.43,22.48c-0.01,0-0.02,0-0.03,0c-0.35-0.02-0.7-0.06-1.04-0.11c-0.27-0.04-0.46-0.3-0.42-0.57s0.3-0.45,0.57-0.42
		c0.31,0.05,0.62,0.08,0.94,0.1c0.28,0.01,0.49,0.25,0.47,0.53C11.91,22.28,11.69,22.48,11.43,22.48z M14.4,22.21
		c-0.23,0-0.43-0.15-0.49-0.38c-0.07-0.27,0.1-0.54,0.37-0.6c0.31-0.08,0.61-0.17,0.91-0.27c0.26-0.1,0.55,0.04,0.64,0.3
		c0.09,0.26-0.04,0.55-0.3,0.64c-0.33,0.12-0.66,0.22-1.01,0.3C14.48,22.2,14.44,22.21,14.4,22.21z M7.59,21.48
		c-0.07,0-0.15-0.02-0.22-0.05c-0.32-0.15-0.62-0.33-0.92-0.51c-0.23-0.15-0.3-0.46-0.16-0.69s0.46-0.3,0.69-0.16
		c0.27,0.17,0.54,0.32,0.83,0.46c0.25,0.12,0.35,0.42,0.23,0.67C7.95,21.37,7.77,21.48,7.59,21.48z M17.99,20.51
		c-0.15,0-0.3-0.07-0.4-0.2c-0.17-0.22-0.12-0.54,0.1-0.7c0.25-0.19,0.5-0.39,0.73-0.61c0.21-0.19,0.52-0.17,0.71,0.03
		c0.19,0.2,0.17,0.52-0.03,0.71c-0.26,0.24-0.53,0.46-0.81,0.67C18.2,20.47,18.1,20.51,17.99,20.51z M4.44,19.05
		c-0.14,0-0.28-0.06-0.38-0.17c-0.23-0.26-0.44-0.54-0.65-0.83c-0.16-0.23-0.11-0.54,0.12-0.7c0.23-0.16,0.54-0.11,0.7,0.12
		c0.18,0.26,0.38,0.51,0.59,0.75c0.18,0.21,0.16,0.52-0.05,0.71C4.67,19.01,4.56,19.05,4.44,19.05z M20.64,17.54
		c-0.09,0-0.17-0.02-0.25-0.07c-0.24-0.14-0.32-0.45-0.18-0.68c0.16-0.27,0.31-0.55,0.44-0.84c0.12-0.25,0.41-0.36,0.66-0.25
		c0.25,0.12,0.36,0.41,0.25,0.66c-0.15,0.32-0.31,0.63-0.48,0.93C20.98,17.45,20.81,17.54,20.64,17.54z M2.49,15.59
		c-0.21,0-0.41-0.13-0.48-0.35c-0.11-0.33-0.2-0.67-0.27-1.01c-0.06-0.27,0.11-0.54,0.38-0.59c0.27-0.06,0.54,0.11,0.6,0.38
		c0.07,0.31,0.15,0.62,0.25,0.92c0.08,0.26-0.06,0.54-0.32,0.63C2.59,15.58,2.54,15.59,2.49,15.59z M21.92,13.78
		c-0.02,0-0.04,0-0.06,0c-0.27-0.03-0.47-0.28-0.43-0.56c0.04-0.31,0.06-0.63,0.07-0.95c0.01-0.28,0.25-0.49,0.51-0.49
		c0.28,0.01,0.49,0.24,0.49,0.51c-0.01,0.35-0.04,0.7-0.08,1.04C22.38,13.6,22.17,13.78,21.92,13.78z M2.04,11.64
		c-0.01,0-0.03,0-0.04,0c-0.28-0.02-0.48-0.27-0.46-0.54c0.03-0.35,0.08-0.7,0.14-1.04c0.05-0.27,0.31-0.45,0.58-0.4
		c0.27,0.05,0.45,0.31,0.4,0.58c-0.06,0.31-0.1,0.62-0.13,0.94C2.51,11.45,2.29,11.64,2.04,11.64z M21.64,9.82
		c-0.22,0-0.42-0.14-0.48-0.37c-0.09-0.31-0.19-0.61-0.3-0.9c-0.1-0.26,0.03-0.55,0.29-0.65c0.25-0.1,0.55,0.03,0.65,0.28
		c0.13,0.32,0.24,0.66,0.33,1c0.07,0.27-0.08,0.54-0.35,0.62C21.72,9.81,21.68,9.82,21.64,9.82z M3.15,7.83
		C3.08,7.83,3,7.81,2.92,7.77C2.68,7.64,2.58,7.34,2.71,7.1c0.16-0.31,0.34-0.61,0.54-0.9C3.4,5.96,3.71,5.9,3.94,6.06
		c0.23,0.15,0.29,0.46,0.14,0.69C3.91,7.01,3.74,7.28,3.6,7.57C3.51,7.73,3.33,7.83,3.15,7.83z M19.83,6.28
		c-0.15,0-0.29-0.06-0.39-0.19c-0.2-0.25-0.41-0.49-0.63-0.71c-0.19-0.2-0.19-0.51,0.01-0.71c0.2-0.19,0.51-0.19,0.71,0.01
		c0.24,0.25,0.48,0.51,0.69,0.79c0.17,0.22,0.14,0.53-0.08,0.7C20.05,6.25,19.94,6.28,19.83,6.28z M5.67,4.76
		c-0.15,0-0.29-0.06-0.39-0.18c-0.17-0.21-0.14-0.53,0.07-0.7C5.62,3.65,5.91,3.44,6.2,3.25c0.23-0.15,0.54-0.09,0.69,0.14
		s0.09,0.54-0.14,0.69C6.49,4.26,6.23,4.44,5.99,4.65C5.89,4.72,5.78,4.76,5.67,4.76z M16.79,3.72c-0.08,0-0.16-0.02-0.24-0.06
		c-0.28-0.15-0.56-0.29-0.86-0.41c-0.25-0.11-0.37-0.4-0.26-0.66c0.11-0.25,0.4-0.37,0.66-0.27c0.32,0.14,0.64,0.29,0.94,0.46
		c0.24,0.13,0.33,0.44,0.2,0.68C17.14,3.63,16.97,3.72,16.79,3.72z M9.18,2.9c-0.22,0-0.42-0.14-0.48-0.36
		C8.63,2.28,8.78,2,9.04,1.92c0.33-0.1,0.67-0.18,1.02-0.24c0.28-0.05,0.53,0.13,0.58,0.4c0.05,0.27-0.13,0.53-0.4,0.58
		C9.93,2.72,9.63,2.79,9.32,2.88C9.28,2.9,9.23,2.9,9.18,2.9z M13,2.55c-0.02,0-0.03,0-0.05,0C12.64,2.52,12.32,2.5,12,2.5
		c-0.28,0-0.5-0.22-0.5-0.5s0.22-0.5,0.5-0.5c0.35,0,0.7,0.02,1.05,0.05c0.27,0.03,0.48,0.27,0.45,0.55
		C13.47,2.36,13.25,2.55,13,2.55z"/>
</g>
<g>
	<path d="M12,17.33c-0.37,0-0.67-0.3-0.67-0.67v-4h-4c-0.37,0-0.67-0.3-0.67-0.67s0.3-0.67,0.67-0.67h4v-4
		c0-0.37,0.3-0.67,0.67-0.67s0.67,0.3,0.67,0.67v4h4c0.37,0,0.67,0.3,0.67,0.67s-0.3,0.67-0.67,0.67h-4v4
		C12.67,17.04,12.37,17.33,12,17.33z"/>
</g>
</svg>
