<?xml version="1.0" encoding="utf-8"?>
<!-- Generator: Adobe Illustrator 26.0.1, SVG Export Plug-In . SVG Version: 6.00 Build 0)  -->
<svg version="1.2" baseProfile="tiny" id="Layer_1" xmlns="http://www.w3.org/2000/svg" xmlns:xlink="http://www.w3.org/1999/xlink"
	 x="0px" y="0px" viewBox="0 0 12 12" overflow="visible" xml:space="preserve">
<path fill="#FFFFFF" d="M4.88,6.75c-0.21,0-0.38-0.17-0.38-0.38V2.27C2.23,2.47,0.56,4.48,0.77,6.75s2.21,3.94,4.48,3.73
	C7.23,10.3,8.8,8.73,8.98,6.75H4.88z M5.25,6h4.12c0.21,0,0.38,0.17,0.38,0.38c0,2.69-2.18,4.88-4.88,4.88S0,9.07,0,6.38
	S2.18,1.5,4.88,1.5c0.21,0,0.38,0.17,0.38,0.38V6z M6.75,0.77V4.5h3.73C10.27,2.66,8.59,0.98,6.75,0.77 M10.88,5.25h-4.5
	C6.17,5.25,6,5.08,6,4.88v-4.5C6,0.17,6.17,0,6.38,0c2.51,0,4.88,2.36,4.88,4.88C11.25,5.08,11.08,5.25,10.88,5.25 M4.61,6.64
	c-0.15-0.15-0.15-0.38,0-0.53s0.38-0.15,0.53,0l3,3c0.15,0.15,0.15,0.38,0,0.53c-0.15,0.15-0.38,0.15-0.53,0L4.61,6.64z"/>
</svg>
