<?xml version="1.0" encoding="utf-8"?>
<!-- Generator: Adobe Illustrator 26.0.1, SVG Export Plug-In . SVG Version: 6.00 Build 0)  -->
<svg version="1.2" baseProfile="tiny" id="Layer_1" xmlns="http://www.w3.org/2000/svg" xmlns:xlink="http://www.w3.org/1999/xlink"
	 x="0px" y="0px" viewBox="0 0 12 12" overflow="visible" xml:space="preserve">
<path fill-rule="evenodd" fill="#FFFFFF" d="M6,1.62c0.21,0,0.38,0.17,0.38,0.38v7.09l2.36-2.36c0.14-0.15,0.38-0.16,0.53-0.02
	s0.16,0.38,0.02,0.53C9.28,7.25,9.27,7.26,9.26,7.26l-3,3c-0.15,0.15-0.38,0.15-0.53,0l-3-3C2.58,7.12,2.58,6.89,2.72,6.73
	s0.38-0.16,0.53-0.02c0.01,0.01,0.01,0.01,0.02,0.02l2.36,2.36V2C5.62,1.79,5.79,1.62,6,1.62"/>
</svg>
