<?xml version="1.0" encoding="utf-8"?>
<!-- Generator: Adobe Illustrator 26.0.1, SVG Export Plug-In . SVG Version: 6.00 Build 0)  -->
<svg version="1.2" baseProfile="tiny" id="Layer_1" xmlns="http://www.w3.org/2000/svg" xmlns:xlink="http://www.w3.org/1999/xlink"
	 x="0px" y="0px" viewBox="0 0 12 12" overflow="visible" xml:space="preserve">
<g>
	<path fill-rule="evenodd" fill="#FFFFFF" d="M5.6,1.29c0.25-0.14,0.55-0.14,0.8,0l3.6,2c0.26,0.15,0.42,0.42,0.42,0.72v3.97
		c0,0.3-0.16,0.58-0.42,0.72l-3.6,2c-0.25,0.14-0.55,0.14-0.8,0l-3.6-2C1.74,8.56,1.57,8.28,1.57,7.99V4.01
		c0-0.3,0.16-0.58,0.42-0.72L5.6,1.29z M6.04,1.95c-0.02-0.01-0.05-0.01-0.07,0l-3.6,2C2.34,3.96,2.33,3.99,2.33,4.01v3.97
		c0,0.03,0.02,0.05,0.04,0.06l3.6,2c0.02,0.01,0.05,0.01,0.07,0l3.6-2c0.02-0.01,0.04-0.04,0.04-0.07V4.01
		c0-0.03-0.01-0.05-0.04-0.07L6.04,1.95z"/>
	<path fill-rule="evenodd" fill="#FFFFFF" d="M3.62,6c0-1.31,1.06-2.38,2.38-2.38S8.38,4.69,8.38,6S7.31,8.38,6,8.38
		S3.62,7.31,3.62,6 M6,4.38C5.1,4.38,4.38,5.1,4.38,6S5.1,7.62,6,7.62S7.62,6.9,7.62,6S6.9,4.38,6,4.38"/>
</g>
</svg>
