<?xml version="1.0" encoding="utf-8"?>
<!-- Generator: Adobe Illustrator 26.0.1, SVG Export Plug-In . SVG Version: 6.00 Build 0)  -->
<svg version="1.2" baseProfile="tiny" id="Layer_1" xmlns="http://www.w3.org/2000/svg" xmlns:xlink="http://www.w3.org/1999/xlink"
	 x="0px" y="0px" viewBox="0 0 12 12" overflow="visible" xml:space="preserve">
<g>
	<path fill="none" stroke="#FFFFFF" stroke-width="0.75" stroke-linecap="round" stroke-linejoin="round" stroke-miterlimit="2" d="
		M8.22,10.67l0.28-0.35c0.24-0.3,0.76-0.28,0.96,0.05c0.25,0.39,0.86,0.31,1.02-0.05c0.01-0.02-0.01,0.03,0.01-0.13
		c0.02-0.16,0.01-0.2-0.01-0.27L9.52,5.38C9.28,4.24,9.16,3.67,8.74,3.33C8.33,3,7.74,3,6.57,3H5.43C4.26,3,3.67,3,3.26,3.34
		C2.84,3.67,2.72,4.24,2.48,5.38L1.52,9.92c-0.02,0.07-0.02,0.11,0,0.27c0.02,0.16,0,0.11,0.01,0.13c0.17,0.36,0.78,0.44,1.02,0.05
		c0.2-0.32,0.72-0.35,0.96-0.05l0.28,0.35c0.35,0.44,1.07,0.44,1.42,0l0.04-0.05c0.37-0.46,1.14-0.46,1.51,0l0.04,0.05
		C7.15,11.11,7.87,11.11,8.22,10.67"/>
	<path fill="none" stroke="#FFFFFF" stroke-width="0.75" stroke-linecap="round" stroke-linejoin="round" stroke-miterlimit="2" d="
		M1.24,4.75C0.95,4.45,1,4.05,1,3.08S1,1.61,1.3,1.3C1.59,1,2.06,1,3,1H9c0.94,0,1.41,0,1.71,0.3S11,2.1,11,3.08
		s0.06,1.37-0.24,1.67 M6,5H4.5 M7,7H4"/>
</g>
</svg>
