<?xml version="1.0" encoding="utf-8"?>
<!-- Generator: Adobe Illustrator 26.0.1, SVG Export Plug-In . SVG Version: 6.00 Build 0)  -->
<svg version="1.2" baseProfile="tiny" id="Layer_1" xmlns="http://www.w3.org/2000/svg" xmlns:xlink="http://www.w3.org/1999/xlink"
	 x="0px" y="0px" viewBox="0 0 12 12" overflow="visible" xml:space="preserve">
<path fill="none" stroke="#FFFFFF" stroke-linecap="round" stroke-miterlimit="2" d="M2.25,8.5H2C1.72,8.5,1.5,8.28,1.5,8
	c0-0.83,0.67-1.5,1.5-1.5h0.5 M3.5,4.97C2.82,4.84,2.39,4.18,2.53,3.5S3.32,2.39,4,2.53c0.18,0.04,0.35,0.11,0.5,0.22 M9.75,8.5H10
	c0.28,0,0.5-0.22,0.5-0.5c0-0.83-0.67-1.5-1.5-1.5H8.5 M8.5,4.97c0.68-0.14,1.11-0.8,0.97-1.48C9.34,2.82,8.68,2.39,8,2.53
	C7.82,2.56,7.65,2.64,7.5,2.75 M7.75,9.5h-3.5c-0.28,0-0.5-0.22-0.5-0.5c0-0.83,0.67-1.5,1.5-1.5h1.5c0.83,0,1.5,0.67,1.5,1.5
	C8.25,9.28,8.03,9.5,7.75,9.5z M7.25,4.75C7.25,5.44,6.69,6,6,6S4.75,5.44,4.75,4.75S5.31,3.5,6,3.5S7.25,4.06,7.25,4.75z"/>
</svg>
