<?xml version="1.0" encoding="utf-8"?>
<!-- Generator: Adobe Illustrator 26.0.1, SVG Export Plug-In . SVG Version: 6.00 Build 0)  -->
<svg version="1.2" baseProfile="tiny" id="Layer_1" xmlns="http://www.w3.org/2000/svg" xmlns:xlink="http://www.w3.org/1999/xlink"
	 x="0px" y="0px" viewBox="0 0 12 12" overflow="visible" xml:space="preserve">
<g>
	<path fill="none" stroke="#FFFFFF" stroke-width="0.75" stroke-linecap="round" stroke-linejoin="round" stroke-miterlimit="5" d="
		M4.15,10.5h3.69c1.86,0,2.19-0.73,2.28-1.61l0.35-3.6c0.12-1.1-0.2-1.99-2.17-1.99H3.69c-1.97,0-2.29,0.9-2.17,1.99l0.35,3.6
		C1.97,9.77,2.3,10.5,4.15,10.5 M4.15,3.3V2.94c0-0.8,0-1.44,1.48-1.44h0.74c1.48,0,1.48,0.64,1.48,1.44V3.3"/>
	<path fill="none" stroke="#FFFFFF" stroke-width="0.75" stroke-linecap="round" stroke-linejoin="round" stroke-miterlimit="5" d="
		M4.91,6.67C3.73,6.54,2.61,6.14,1.62,5.5 M7.12,6.67c1.17-0.13,2.3-0.53,3.29-1.17"/>
	
		<circle fill="none" stroke="#FFFFFF" stroke-width="0.75" stroke-linecap="round" stroke-linejoin="round" stroke-miterlimit="2" cx="6" cy="6.75" r="1"/>
</g>
</svg>
